<?xml version="1.0" standalone="no"?>
<!DOCTYPE svg PUBLIC "-//W3C//DTD SVG 20010904//EN"
 "http://www.w3.org/TR/2001/REC-SVG-20010904/DTD/svg10.dtd">
<svg version="1.0" xmlns="http://www.w3.org/2000/svg"
 width="278.000000pt" height="190.000000pt" viewBox="0 0 278.000000 190.000000"
 preserveAspectRatio="xMidYMid meet">

<g transform="translate(0.000000,190.000000) scale(0.100000,-0.100000)"
fill="#000000" stroke="none">
<path d="M0 950 l0 -950 1390 0 1390 0 0 950 0 950 -1390 0 -1390 0 0 -950z
m1612 653 l28 -27 0 -238 c0 -280 19 -245 -172 -307 -156 -50 -178 -52 -178
-12 0 27 6 31 78 59 42 17 102 39 132 50 l55 20 3 241 c2 177 5 241 14 241 7
0 25 -12 40 -27z m101 -78 l27 -24 0 -249 0 -249 -177 -57 c-252 -82 -243 -80
-255 -68 -5 5 -8 20 -6 33 3 27 39 43 238 111 l125 43 3 243 c1 133 6 242 10
242 4 0 19 -12 35 -25z m109 -92 l28 -27 0 -483 c0 -289 -4 -483 -9 -483 -5 0
-23 12 -40 26 l-31 26 0 199 c0 110 -4 199 -9 199 -5 0 -87 -27 -182 -59 -96
-32 -196 -66 -224 -75 -27 -10 -62 -22 -77 -28 l-28 -10 0 -234 c0 -128 -4
-235 -8 -238 -4 -2 -22 7 -40 20 l-32 25 0 490 c0 269 3 489 8 489 10 0 55
-31 64 -44 4 -6 8 -102 8 -213 0 -112 3 -203 7 -203 7 0 440 144 486 162 l27
10 0 233 c0 127 3 235 7 238 10 11 15 9 45 -20z m-812 -20 c14 -9 28 -22 32
-27 9 -13 11 -970 2 -979 -4 -3 -22 5 -40 20 l-34 25 0 489 c0 269 3 489 8
489 4 0 19 -8 32 -17z m113 -88 l27 -24 0 -491 c0 -269 -3 -490 -7 -490 -3 0
-21 11 -40 26 l-33 25 0 490 c0 385 3 489 13 489 6 0 24 -12 40 -25z m612
-507 c3 -13 4 -86 3 -162 l-3 -139 -32 27 -33 28 0 128 c0 114 2 129 18 133
34 9 42 7 47 -15z m-102 -107 c10 -102 1 -118 -44 -75 -30 28 -31 32 -25 87 7
71 12 79 39 75 20 -3 23 -12 30 -87z"/>
</g>
</svg>
