<?xml version="1.0" standalone="no"?>
<!DOCTYPE svg PUBLIC "-//W3C//DTD SVG 20010904//EN"
 "http://www.w3.org/TR/2001/REC-SVG-20010904/DTD/svg10.dtd">
<svg version="1.0" xmlns="http://www.w3.org/2000/svg"
 width="276.000000pt" height="194.000000pt" viewBox="0 0 276.000000 194.000000"
 preserveAspectRatio="xMidYMid meet">

<g transform="translate(0.000000,194.000000) scale(0.100000,-0.100000)"
fill="#000000" stroke="none">
<path d="M1540 1487 l0 -244 -132 -43 c-73 -24 -139 -48 -145 -53 -16 -11 -17
-77 -3 -77 12 0 342 111 350 117 2 2 3 115 2 251 l-2 247 -27 22 c-16 13 -31
23 -35 23 -5 0 -8 -109 -8 -243z"/>
<path d="M1650 1405 l0 -234 -27 -14 c-16 -8 -106 -40 -200 -71 l-173 -58 0
-39 c0 -21 3 -39 6 -39 4 0 110 34 235 76 l229 77 0 247 0 246 -25 22 c-14 12
-30 22 -35 22 -6 0 -10 -86 -10 -235z"/>
<path d="M1755 1548 c-3 -7 -6 -116 -7 -242 l-3 -230 -245 -83 c-135 -45 -251
-83 -257 -83 -10 0 -13 47 -13 204 l0 205 -33 25 c-19 15 -37 26 -40 26 -4 0
-7 -220 -7 -489 l0 -489 31 -26 c17 -14 35 -26 40 -26 5 0 10 106 11 241 l3
241 250 84 c138 46 253 84 258 84 4 0 7 -89 7 -198 l0 -198 28 -27 c15 -15 33
-27 40 -27 9 0 12 115 12 483 l0 484 -22 20 c-34 30 -48 36 -53 21z"/>
<path d="M950 1043 l0 -488 34 -27 c18 -15 36 -24 40 -21 3 4 6 224 6 489 l0
483 -33 25 c-19 15 -37 26 -40 26 -4 0 -7 -219 -7 -487z"/>
<path d="M1050 961 l0 -489 34 -26 c19 -14 37 -26 40 -26 3 0 6 220 6 489 l0
490 -33 25 c-19 15 -37 26 -40 26 -4 0 -7 -220 -7 -489z"/>
<path d="M1673 946 c-22 -10 -23 -16 -23 -142 0 -123 1 -132 23 -151 48 -43
47 -45 47 136 0 181 0 181 -47 157z"/>
<path d="M1563 908 c-21 -10 -23 -18 -23 -79 0 -61 3 -71 27 -94 15 -14 31
-25 35 -25 9 0 20 115 16 165 -3 43 -17 52 -55 33z"/>
</g>
</svg>
